<svg id="Layer_1" data-name="Layer 1" xmlns="http://www.w3.org/2000/svg" viewBox="0 0 1080 1080"><defs><style>.cls-1{fill:#1a1515;}.cls-2{fill:#fff;}.cls-3{fill:#fbb146;}</style></defs><rect class="cls-1" x="-5.38" y="-5.45" width="1090.77" height="1090.9"/><path class="cls-2" d="M260.19,519.31a12.7,12.7,0,0,0-5.89-4.06,21,21,0,0,0-7-1.32,18.68,18.68,0,0,0-4,.46,15.23,15.23,0,0,0-3.89,1.43,8.46,8.46,0,0,0-3,2.57,6.53,6.53,0,0,0-1.14,3.89,6.43,6.43,0,0,0,2.75,5.6,26,26,0,0,0,6.91,3.32c2.78.91,5.78,1.83,9,2.74a37,37,0,0,1,9,3.89,21.33,21.33,0,0,1,6.92,6.75q2.74,4.23,2.74,11.31A26.11,26.11,0,0,1,270,567.67a24.06,24.06,0,0,1-6.8,8.35,29.05,29.05,0,0,1-10,4.91,45.63,45.63,0,0,1-26.58-.8,36.7,36.7,0,0,1-12.58-7.77l12.69-14a18.51,18.51,0,0,0,6.92,5.66,19.79,19.79,0,0,0,8.63,2,19.08,19.08,0,0,0,4.4-.52,14.23,14.23,0,0,0,4-1.54,8.58,8.58,0,0,0,2.85-2.63,6.58,6.58,0,0,0,1.09-3.77,6.84,6.84,0,0,0-2.8-5.77,25.55,25.55,0,0,0-7-3.61q-4.25-1.49-9.15-3a40.86,40.86,0,0,1-9.15-4,22.14,22.14,0,0,1-7-6.63q-2.81-4.12-2.8-10.87a24.38,24.38,0,0,1,2.57-11.43,24.91,24.91,0,0,1,6.86-8.23,29.79,29.79,0,0,1,9.89-5,40.38,40.38,0,0,1,11.55-1.66,45.6,45.6,0,0,1,13.26,1.94,30.64,30.64,0,0,1,11.55,6.52Z"/><path class="cls-2" d="M290.34,499.53h30.07a59.6,59.6,0,0,1,11.89,1.14,27.12,27.12,0,0,1,9.77,3.94,19.94,19.94,0,0,1,6.63,7.55,25.85,25.85,0,0,1,2.46,12,24,24,0,0,1-2.28,11.09,19.59,19.59,0,0,1-6.29,7.66,25.42,25.42,0,0,1-9.49,4.06,55.7,55.7,0,0,1-11.89,1.2h-13v32.35H290.34ZM308.17,533h11.89a22.58,22.58,0,0,0,4.63-.46,12.4,12.4,0,0,0,4-1.54,8.16,8.16,0,0,0,2.85-3,6.46,6.46,0,0,0,1.09-3.94,8.06,8.06,0,0,0-1.43-5,9.54,9.54,0,0,0-3.66-2.91,15.81,15.81,0,0,0-5-1.32,51,51,0,0,0-5.26-.28h-9.15Z"/><rect class="cls-2" x="368.96" y="499.53" width="17.83" height="80.95"/><polygon class="cls-2" points="560.51 499.53 578.35 499.53 578.35 564.01 611.39 564.01 611.39 580.48 560.51 580.48 560.51 499.53"/><polygon class="cls-2" points="629.22 545.95 598.81 499.53 620.99 499.53 638.14 529.83 656.32 499.53 677.47 499.53 647.06 545.95 647.06 580.48 629.22 580.48 629.22 545.95"/><polygon class="cls-2" points="703.67 515.3 680.57 515.3 680.57 499.53 744.6 499.53 744.6 515.3 721.5 515.3 721.5 580.47 703.67 580.47 703.67 515.3"/><rect class="cls-2" x="762.4" y="499.53" width="17.83" height="80.95"/><polygon class="cls-2" points="811.7 538.17 784.94 499.53 807.35 499.53 824.61 527.88 841.19 499.53 862.8 499.53 836.62 537.83 865.89 580.48 843.48 580.48 823.7 547.89 804.49 580.48 783.34 580.48 811.7 538.17"/><path class="cls-2" d="M504.59,548.23h-.11l9.83-25.15,23,57.39h20.12L522.2,499.53H507.45l-35,80.94h19.66q6.24-16.11,12.47-32.24"/><path class="cls-2" d="M448.78,546.29q8.58-1.6,13-7.6a23.79,23.79,0,0,0,4.46-14.58,25.7,25.7,0,0,0-2.45-11.84,19.93,19.93,0,0,0-6.64-7.54,27.92,27.92,0,0,0-9.72-4,55.9,55.9,0,0,0-11.72-1.19H404.42v15.09h29.5a36.09,36.09,0,0,1,4.91.34,14.2,14.2,0,0,1,4.46,1.32,8.37,8.37,0,0,1,3.2,2.8,8.54,8.54,0,0,1,1.26,4.92,8.14,8.14,0,0,1-1.43,5.14,8.44,8.44,0,0,1-3.6,2.69,16.18,16.18,0,0,1-4.86,1c-1.79.11-3.49.17-5.09.17H416.82a12.4,12.4,0,0,0-12.4,12.4v35h17.84V548.12h8.8L448,580.47h21.38Z"/><path class="cls-3" d="M514.36,565.67h0a7.55,7.55,0,1,1,7.55-7.55,7.55,7.55,0,0,1-7.55,7.55"/></svg>