<svg id="Layer_1" data-name="Layer 1" xmlns="http://www.w3.org/2000/svg" viewBox="0 0 1080 1080"><defs><style>.cls-1{fill:#0a2343;}.cls-2{fill:#fbb146;}</style></defs><path class="cls-1" d="M257.28,519.09a12.83,12.83,0,0,0-5.95-4.1,21.55,21.55,0,0,0-7.11-1.33,19,19,0,0,0-4,.46,15.31,15.31,0,0,0-3.93,1.45,8.51,8.51,0,0,0-3,2.6,7.19,7.19,0,0,0,1.61,9.59,26.08,26.08,0,0,0,7,3.34c2.8.93,5.83,1.85,9.06,2.78a36.9,36.9,0,0,1,9.07,3.93,21.43,21.43,0,0,1,7,6.81q2.77,4.27,2.77,11.44a26.37,26.37,0,0,1-2.54,11.9,24.21,24.21,0,0,1-6.87,8.43,29.38,29.38,0,0,1-10,5A44.16,44.16,0,0,1,238.21,583a43.69,43.69,0,0,1-14.78-2.42,37.08,37.08,0,0,1-12.71-7.86l12.82-14.09a18.72,18.72,0,0,0,7,5.72,20.06,20.06,0,0,0,8.72,2,19.5,19.5,0,0,0,4.45-.52,14.84,14.84,0,0,0,4.05-1.56,8.75,8.75,0,0,0,2.88-2.65,6.65,6.65,0,0,0,1.1-3.82A6.9,6.9,0,0,0,248.9,552a25.91,25.91,0,0,0-7.1-3.64q-4.28-1.5-9.25-3a41.21,41.21,0,0,1-9.24-4,22.16,22.16,0,0,1-7.1-6.7q-2.84-4.16-2.83-11A24.78,24.78,0,0,1,216,512a25.1,25.1,0,0,1,6.94-8.31,29.93,29.93,0,0,1,10-5A40.75,40.75,0,0,1,244.57,497a45.88,45.88,0,0,1,13.4,2,31.11,31.11,0,0,1,11.67,6.58Z"/><path class="cls-1" d="M287.74,499.1h30.38a60.08,60.08,0,0,1,12,1.16,27.25,27.25,0,0,1,9.87,4,20.2,20.2,0,0,1,6.71,7.62,26.19,26.19,0,0,1,2.48,12.07,24.17,24.17,0,0,1-2.31,11.21,19.68,19.68,0,0,1-6.36,7.74A25.67,25.67,0,0,1,331,547a56.21,56.21,0,0,1-12,1.21H305.76v32.7h-18Zm18,33.85h12a23.07,23.07,0,0,0,4.68-.46,12.41,12.41,0,0,0,4.05-1.55,8.52,8.52,0,0,0,2.89-3,6.62,6.62,0,0,0,1.09-4,8.11,8.11,0,0,0-1.44-5,9.67,9.67,0,0,0-3.7-2.95,16.12,16.12,0,0,0-5-1.33,52.18,52.18,0,0,0-5.32-.28h-9.24Z"/><rect class="cls-1" x="367.19" y="499.1" width="18.02" height="81.79"/><polygon class="cls-1" points="560.73 499.11 578.75 499.11 578.75 564.26 612.13 564.26 612.13 580.9 560.73 580.9 560.73 499.11"/><polygon class="cls-1" points="630.15 546.01 599.42 499.11 621.83 499.11 639.16 529.72 657.53 499.11 678.9 499.11 648.17 546.01 648.17 580.9 630.15 580.9 630.15 546.01"/><polygon class="cls-1" points="705.37 515.05 682.03 515.05 682.03 499.11 746.73 499.11 746.73 515.05 723.39 515.05 723.39 580.89 705.37 580.89 705.37 515.05"/><rect class="cls-1" x="764.72" y="499.1" width="18.02" height="81.79"/><polygon class="cls-1" points="814.52 538.15 787.49 499.11 810.13 499.11 827.57 527.75 844.33 499.11 866.16 499.11 839.71 537.8 869.28 580.9 846.64 580.9 826.65 547.97 807.24 580.9 785.87 580.9 814.52 538.15"/><path class="cls-1" d="M504.22,548.32h-.11L514,522.9l23.22,58h20.33L522,499.1h-14.9l-35.35,81.8h19.87q6.28-16.29,12.59-32.58"/><path class="cls-1" d="M447.83,546.35q8.67-1.61,13.17-7.68a24,24,0,0,0,4.51-14.73A25.73,25.73,0,0,0,463,512a20.12,20.12,0,0,0-6.7-7.63,28.2,28.2,0,0,0-9.82-4,55.77,55.77,0,0,0-11.84-1.22H403v15.26h29.8a36.85,36.85,0,0,1,5,.34,14.51,14.51,0,0,1,4.51,1.33,8,8,0,0,1,4.5,7.8,8.2,8.2,0,0,1-1.45,5.19,8.44,8.44,0,0,1-3.63,2.72,15.92,15.92,0,0,1-4.91,1c-1.81.12-3.52.17-5.14.17H415.53A12.53,12.53,0,0,0,403,545.48V580.9h18V548.2h8.89L447,580.9h21.61Z"/><path class="cls-2" d="M514.09,565.93h0a7.63,7.63,0,1,1,7.63-7.62,7.62,7.62,0,0,1-7.63,7.62"/></svg>